<?xml version="1.0" encoding="UTF-8" standalone="no"?>
<!DOCTYPE svg PUBLIC "-//W3C//DTD SVG 1.1//EN" "http://www.w3.org/Graphics/SVG/1.1/DTD/svg11.dtd">
<svg width="33px" height="33px" version="1.1" xmlns="http://www.w3.org/2000/svg" xmlns:xlink="http://www.w3.org/1999/xlink" xml:space="preserve" xmlns:serif="http://www.serif.com/" style="fill-rule:evenodd;clip-rule:evenodd;stroke-linejoin:round;stroke-miterlimit:2;">
    <path d="M31.264,19.669c0.18,0.255 0.278,0.56 0.278,0.873c-0,0.83 -0.683,1.512 -1.513,1.512c-0.39,0 -0.765,-0.151 -1.047,-0.421c-0.016,-0.015 -0.031,-0.031 -0.046,-0.048c-0.03,-0.035 -2.068,-2.229 -5.399,-3.855c-0.699,5.35 -4.564,10.442 -11.124,10.442c-2.132,0 -3.946,-0.703 -5.264,-2.008c-0.002,-0.002 -0.003,-0.003 -0.004,-0.004c-1.232,-1.239 -1.917,-2.921 -1.901,-4.666c0.001,-2.196 1.043,-4.352 2.88,-5.894l0,-0c2.019,-1.692 4.894,-2.61 8.336,-2.61l0,-0c1.291,0.001 2.577,0.138 3.837,0.409c-0.314,-1.163 -0.845,-2.209 -1.574,-3.058l-0.001,-0c-1.375,-1.604 -3.415,-2.431 -5.878,-2.431c-5.243,0 -8.856,4.977 -8.891,5.03c-0.004,0.004 -0.007,0.009 -0.011,0.014c-0.283,0.396 -0.742,0.631 -1.229,0.631c-0.83,0 -1.513,-0.683 -1.513,-1.513c-0,-0.316 0.099,-0.624 0.283,-0.881c0.191,-0.267 4.612,-6.306 11.361,-6.306c3.407,0 6.225,1.216 8.179,3.492l0.001,0c1.381,1.613 2.265,3.715 2.538,6.036c4.619,1.875 7.458,4.971 7.627,5.157c0.028,0.031 0.053,0.064 0.075,0.099Zm-12.798,2.656c1.255,-1.537 2.016,-3.596 2.142,-5.724c-1.347,-0.384 -2.741,-0.581 -4.143,-0.586c-5.553,0 -8.187,2.769 -8.187,5.484c-0,2.535 2.16,3.648 4.135,3.648c3.099,0 5.004,-1.532 6.052,-2.821l0.001,-0.001Z" style="fill:#a5f3cf;fill-rule:nonzero;"/>
</svg>
