<?xml version="1.0" encoding="UTF-8" standalone="no"?>
<!DOCTYPE svg PUBLIC "-//W3C//DTD SVG 1.1//EN" "http://www.w3.org/Graphics/SVG/1.1/DTD/svg11.dtd">
<svg width="100%" height="100%" viewBox="0 0 1000 1000" version="1.1" xmlns="http://www.w3.org/2000/svg" xmlns:xlink="http://www.w3.org/1999/xlink" xml:space="preserve" xmlns:serif="http://www.serif.com/" style="fill-rule:evenodd;clip-rule:evenodd;stroke-linejoin:round;stroke-miterlimit:2;">
    <g>
        <path d="M500,0C775.958,0 1000,224.042 1000,500C1000,775.958 775.958,1000 500,1000C224.042,1000 0,775.958 0,500C0,224.042 224.042,0 500,0ZM500,26C238.392,26 26,238.392 26,500C26,761.608 238.392,974 500,974C761.608,974 974,761.608 974,500C974,238.392 761.608,26 500,26ZM903.86,580.353C908.527,586.956 911.047,594.858 911.047,602.971C911.047,624.467 893.358,642.156 871.861,642.156C861.756,642.156 852.032,638.247 844.739,631.253C844.318,630.849 843.915,630.426 843.531,629.986C842.754,629.094 789.951,572.249 703.672,530.136C685.547,668.733 585.413,800.66 415.475,800.66C360.221,800.66 313.225,782.439 279.08,748.622C279.045,748.588 279.01,748.553 278.975,748.518C247.059,716.427 229.312,672.841 229.731,627.629C229.746,570.753 256.765,514.897 304.344,474.946L304.359,474.933C356.649,431.114 431.128,407.32 520.301,407.32L520.318,407.32C553.761,407.349 587.078,410.906 619.719,417.914C611.597,387.786 597.821,360.697 578.933,338.7L578.922,338.686C543.3,297.123 490.438,275.712 426.63,275.712C290.799,275.712 197.2,404.662 196.279,406.013C196.192,406.14 196.103,406.267 196.013,406.392C188.656,416.65 176.78,422.747 164.156,422.747C142.65,422.747 124.953,405.05 124.953,383.544C124.953,375.352 127.521,367.362 132.294,360.704C137.234,353.8 251.774,197.34 426.63,197.34C514.887,197.34 587.918,228.845 638.542,287.801L638.558,287.818C674.347,329.6 697.23,384.053 704.308,444.196C823.981,492.766 897.542,572.967 901.901,577.788C902.631,578.596 903.285,579.455 903.86,580.353ZM572.288,649.175C604.792,609.345 624.504,556.013 627.784,500.885C592.887,490.933 556.765,485.814 520.432,485.691C376.571,485.702 308.331,557.427 308.331,627.776C308.331,693.439 364.31,722.288 415.475,722.288C495.762,722.288 545.109,682.58 572.27,649.197L572.288,649.175Z" style="fill:rgb(165,243,207);fill-rule:nonzero;"/>
    </g>
</svg>
