<svg width="100%" height="100%" viewBox="0 0 1000 1000" version="1.1" xmlns="http://www.w3.org/2000/svg" xmlns:xlink="http://www.w3.org/1999/xlink" xml:space="preserve" xmlns:serif="http://www.serif.com/" style="fill-rule:evenodd;clip-rule:evenodd;stroke-linejoin:round;stroke-miterlimit:2;"><rect id="transparent" x="-0" y="0" width="1000" height="1000" style="fill:none;"/><clipPath id="_clip1"><rect x="-0" y="0" width="1000" height="1000"/></clipPath><g clip-path="url(#_clip1)"><g><path d="M506.587,167.043c42.327,-4.137 87.08,-5.736 130.765,-2.51c18.315,1.353 36.442,3.554 54.124,6.772c68.443,12.455 130.39,39.732 175.642,86.782c45.881,47.703 76.265,116.08 75.309,214.291c-1.755,180.47 -105.803,303.584 -232.529,384.833c-177.317,113.685 -397.806,142.306 -397.806,142.306c-16.696,2.156 -33.513,-2.969 -46.17,-14.068c-12.657,-11.1 -19.933,-27.104 -19.975,-43.939l-0.652,-260.023c35.551,-10.221 76.027,-23.945 117.168,-42.085l0.58,231.479c70.197,-15.748 184.559,-48.921 283.559,-112.395c95.327,-61.117 177.237,-151.495 178.558,-287.249c0.583,-59.909 -14.577,-102.756 -42.565,-131.856c-28.615,-29.751 -68.836,-44.822 -112.116,-52.698c-6.32,-1.15 -12.706,-2.146 -19.143,-2.999c-38.483,-5.098 -78.753,-5.07 -117.413,-2.193c-68.997,5.134 -132.865,19.343 -172.283,29.677l0.496,197.946c-39.342,21.635 -80.135,37.985 -117.147,50.185l-0.73,-290.889c-0.069,-3.082 0.108,-6.142 0.518,-9.153c1.315,-9.819 5.066,-18.874 10.624,-26.536c5.543,-7.673 12.975,-14.064 21.893,-18.379c2.956,-1.438 6.051,-2.635 9.259,-3.566c14.16,-4.4 108.703,-32.849 220.034,-43.733Z" style="fill:#fff;fill-opacity:0.87;"/><path d="M245.295,681.487c-69.515,19.984 -120.199,26.571 -120.199,26.571c-16.696,2.155 -33.513,-2.969 -46.17,-14.069c-12.657,-11.1 -19.932,-27.104 -19.975,-43.938l-1.386,-552.661c-0.069,-3.082 0.108,-6.142 0.518,-9.153c1.316,-9.819 5.066,-18.875 10.624,-26.536c5.543,-7.673 12.975,-14.064 21.893,-18.379c3,-1.46 6.142,-2.671 9.4,-3.607c20.444,-6.304 195.911,-58.344 337.247,-32.623c58.466,10.639 111.287,34.134 149.942,74.324c21.274,22.12 38.745,49.399 50.163,83.117c-43.685,-3.226 -88.438,-1.627 -130.765,2.51c-1.266,-1.487 -2.573,-2.931 -3.921,-4.332c-35.218,-36.617 -91.848,-45.003 -147.425,-45.677c-69.041,-0.837 -138.219,13.018 -180.294,23.494c0.3,119.572 1.099,438.334 1.099,438.334c20.099,-4.822 43.637,-11.222 68.943,-19.563c37.012,-12.2 77.805,-28.55 117.147,-50.185c10.374,-5.705 20.648,-11.778 30.725,-18.238c71.239,-45.675 133.402,-111.745 141.062,-209.385c38.66,-2.877 78.93,-2.905 117.413,2.193c-8.211,141.998 -92.766,240.255 -195.179,305.917c-30.349,19.457 -62.216,35.921 -93.694,49.801c-41.141,18.14 -81.617,31.864 -117.168,42.085Z" style="fill:#fff;fill-opacity:0.52;"/></g></g></svg>
