<svg width="32px" height="32px" version="1.1" xmlns="http://www.w3.org/2000/svg" xmlns:xlink="http://www.w3.org/1999/xlink" xml:space="preserve" xmlns:serif="http://www.serif.com/" style="fill-rule:evenodd;clip-rule:evenodd;stroke-linejoin:round;stroke-miterlimit:2;">
    <path d="M24.346,26.798l1.194,1.418c0.005,0.006 0.01,0.011 0.014,0.017c0.656,0.82 0.523,2.031 -0.293,2.688c-0.326,0.266 -0.731,0.416 -1.153,0.423c-0.592,0.014 -1.161,-0.247 -1.534,-0.708l-3.049,-3.674l-6.23,0.197l-2.371,3.38c-0.344,0.49 -0.897,0.79 -1.494,0.813c-0.423,0.02 -0.838,-0.105 -1.181,-0.353c-0.852,-0.605 -1.06,-1.804 -0.46,-2.66l0.728,-1.036c-2.603,-0.063 -4.766,-2.175 -4.857,-4.805l-0.515,-16.271c-0.079,-2.727 2.063,-4.902 4.784,-4.995l15.264,-0.606c0.003,0 0.007,-0 0.01,-0c2.724,-0.077 4.848,2.173 4.942,4.889l0.69,16.174c0,0.004 0.001,0.008 0.001,0.012c0.075,2.613 -1.921,4.844 -4.49,5.097Zm-1.089,-24.379l-15.256,0.606l-0.005,-0c-1.73,0.06 -3.107,1.42 -3.057,3.15l0.515,16.262c0.06,1.737 1.534,3.12 3.272,3.071l1.523,-0.048c0.339,-0.011 0.656,0.172 0.818,0.47c0.161,0.299 0.14,0.664 -0.055,0.942l-1.754,2.498c-0.037,0.054 -0.023,0.129 0.03,0.167c0.003,0.002 0.006,0.004 0.009,0.006c0.015,0.011 0.033,0.017 0.051,0.016c0.004,0 0.009,-0 0.013,-0c0.038,-0.001 0.073,-0.021 0.094,-0.051l2.629,-3.747c0.163,-0.231 0.424,-0.372 0.706,-0.381l7.116,-0.226c0.277,-0.009 0.543,0.111 0.719,0.324l3.332,4.015c0.003,0.005 0.008,0.009 0.011,0.013c0.023,0.029 0.059,0.045 0.096,0.044c0.004,-0 0.009,-0 0.013,-0.001c0.019,-0 0.038,-0.008 0.052,-0.02l0.006,-0.004c0.05,-0.041 0.06,-0.114 0.022,-0.166l-2.367,-2.81c-0.221,-0.264 -0.273,-0.63 -0.133,-0.945c0.14,-0.313 0.447,-0.519 0.791,-0.53l1.523,-0.048c1.736,-0.062 3.119,-1.533 3.071,-3.269l-0.69,-16.166l-0,-0.008c-0.061,-1.731 -1.363,-3.211 -3.095,-3.164Zm-10.407,19.915c-0.318,-0.379 -0.268,-0.946 0.112,-1.264c0.38,-0.318 0.946,-0.268 1.264,0.112c0.509,0.608 1.293,0.848 2.047,0.807c0.758,-0.04 1.505,-0.359 1.93,-0.947c0.291,-0.401 0.852,-0.491 1.253,-0.201c0.402,0.291 0.492,0.852 0.202,1.253c-0.732,1.011 -1.987,1.617 -3.289,1.687c-1.304,0.07 -2.638,-0.395 -3.519,-1.447Zm-3.692,-5.081c0.048,0.493 -0.313,0.932 -0.807,0.98c-0.492,0.048 -0.932,-0.313 -0.979,-0.807c-0,0 -0.183,-1.953 0.495,-3.542c0.521,-1.223 1.498,-2.245 3.271,-2.301c1.761,-0.056 2.82,0.885 3.445,2.053c0.82,1.529 0.813,3.472 0.813,3.472c-0.002,0.495 -0.407,0.895 -0.902,0.891c-0.496,-0.003 -0.896,-0.408 -0.892,-0.903c-0,0 0.005,-1.029 -0.354,-2.046c-0.295,-0.836 -0.851,-1.712 -2.053,-1.674c-1.189,0.038 -1.655,0.945 -1.871,1.794c-0.266,1.047 -0.166,2.083 -0.166,2.083Zm9.709,-0.305c0.046,0.496 -0.318,0.937 -0.813,0.983c-0.497,0.047 -0.937,-0.317 -0.983,-0.814c-0,-0 -0.177,-1.945 0.466,-3.527c0.503,-1.237 1.455,-2.262 3.171,-2.316c1.703,-0.054 2.736,0.892 3.343,2.075c0.783,1.524 0.78,3.459 0.78,3.459c-0.002,0.498 -0.409,0.9 -0.907,0.898c-0.497,-0.002 -0.9,-0.409 -0.898,-0.906c0,-0 0.005,-1.035 -0.342,-2.059c-0.279,-0.823 -0.788,-1.699 -1.919,-1.663c-1.119,0.036 -1.539,0.941 -1.741,1.776c-0.254,1.053 -0.157,2.094 -0.157,2.094Z" style="fill:#a5f3cf;"/>
</svg>
