<?xml version="1.0" encoding="UTF-8" standalone="no"?>
<!DOCTYPE svg PUBLIC "-//W3C//DTD SVG 1.1//EN" "http://www.w3.org/Graphics/SVG/1.1/DTD/svg11.dtd">
<svg width="100%" height="100%" viewBox="0 0 27 33" version="1.1" xmlns="http://www.w3.org/2000/svg" xmlns:xlink="http://www.w3.org/1999/xlink" xml:space="preserve" xmlns:serif="http://www.serif.com/" style="fill-rule:evenodd;clip-rule:evenodd;stroke-linejoin:round;stroke-miterlimit:2;">
    <g transform="matrix(0.712896,-0.0225791,0.0225791,0.712896,-5.71736,-91.675)">
        <g>
            <path d="M29.415,139.186C31.515,139.193 33.073,141 33.079,143.1L33.247,158.347C33.241,160.446 31.515,162.172 29.415,162.179L27.978,162.179L30.132,164.908C30.448,165.329 30.361,165.934 29.941,166.25C29.776,166.376 29.574,166.444 29.366,166.441C29.065,166.441 28.78,166.299 28.6,166.058L25.583,162.179L18.877,162.179L16.29,165.628C16.109,165.869 15.825,166.011 15.524,166.011C15.316,166.014 15.114,165.946 14.949,165.819C14.529,165.504 14.442,164.898 14.757,164.478L16.482,162.179L15.045,162.179C12.945,162.172 11.219,160.446 11.213,158.347L11.213,143.018C11.219,140.918 12.928,139.307 15.028,139.301L29.415,139.186ZM15.278,153.604C15.278,153.604 15.21,152.554 15.512,151.503C15.788,150.546 16.381,149.564 17.733,149.564C19.092,149.564 19.716,150.541 20.019,151.495C20.35,152.536 20.311,153.577 20.311,153.577C20.302,153.81 20.484,154.007 20.717,154.015C20.95,154.024 21.146,153.842 21.155,153.609C21.155,153.609 21.218,151.894 20.537,150.521C20.048,149.534 19.197,148.719 17.733,148.719C16.264,148.719 15.432,149.545 14.968,150.544C14.325,151.928 14.434,153.659 14.434,153.659C14.45,153.891 14.651,154.068 14.884,154.053C15.116,154.038 15.293,153.836 15.278,153.604ZM24.421,153.605C24.421,153.605 24.324,152.098 24.859,150.893C25.178,150.174 25.74,149.563 26.751,149.563C27.768,149.563 28.349,150.172 28.689,150.889C29.255,152.084 29.197,153.578 29.197,153.578C29.189,153.81 29.371,154.006 29.603,154.014C29.836,154.023 30.031,153.841 30.04,153.608C30.04,153.608 30.099,151.897 29.45,150.528C28.98,149.536 28.158,148.72 26.751,148.72C25.338,148.72 24.535,149.546 24.089,150.551C23.476,151.932 23.58,153.657 23.58,153.657C23.595,153.889 23.795,154.066 24.027,154.052C24.259,154.037 24.436,153.837 24.421,153.605ZM19.355,158.209C20.069,159.119 21.184,159.54 22.285,159.516C23.385,159.492 24.463,159.022 25.107,158.189C25.251,158.003 25.216,157.736 25.031,157.593C24.845,157.449 24.578,157.484 24.435,157.669C23.942,158.307 23.108,158.648 22.267,158.666C21.426,158.685 20.568,158.379 20.023,157.685C19.878,157.5 19.611,157.468 19.427,157.613C19.242,157.758 19.21,158.025 19.355,158.209Z" style="fill:rgb(165,243,207);"/>
        </g>
    </g>
</svg>
