<?xml version="1.0" encoding="UTF-8" standalone="no"?>
<!DOCTYPE svg PUBLIC "-//W3C//DTD SVG 1.1//EN" "http://www.w3.org/Graphics/SVG/1.1/DTD/svg11.dtd">
<svg width="100%" height="100%" viewBox="0 0 29 35" version="1.1" xmlns="http://www.w3.org/2000/svg" xmlns:xlink="http://www.w3.org/1999/xlink" xml:space="preserve" xmlns:serif="http://www.serif.com/" style="fill-rule:evenodd;clip-rule:evenodd;stroke-linejoin:round;stroke-miterlimit:2;">
    <g transform="matrix(0.55019,0,0,0.55019,-13.1743,-132.832)">
        <g>
            <g transform="matrix(1.18097,-0.0374041,0.0374042,1.18097,18.1109,93.3552)">
                <path d="M29.415,139.186L15.028,139.301C12.928,139.307 11.219,140.918 11.213,143.018L11.213,158.347C11.219,160.446 12.945,162.172 15.045,162.179L16.482,162.179L14.757,164.478C14.442,164.898 14.529,165.504 14.949,165.819C15.114,165.946 15.316,166.014 15.524,166.011C15.825,166.011 16.109,165.869 16.29,165.628L18.877,162.179L25.583,162.179L28.6,166.058C28.78,166.299 29.065,166.441 29.366,166.441C29.574,166.444 29.776,166.376 29.941,166.25C30.361,165.934 30.448,165.329 30.132,164.908L27.978,162.179L29.415,162.179C31.515,162.172 33.241,160.446 33.247,158.347L33.079,143.1C33.073,141 31.515,139.193 29.415,139.186Z" style="fill:none;fill-rule:nonzero;stroke:rgb(165,243,207);stroke-width:1.69px;"/>
            </g>
            <g transform="matrix(1.64382,-0.0520639,0.0568457,1.7948,13.1148,180.981)">
                <path d="M15.396,52.403C15.396,52.403 15.186,49.449 17.463,49.449C19.74,49.449 19.618,52.378 19.618,52.378" style="fill:none;stroke:rgb(165,243,207);stroke-width:1.16px;stroke-linecap:round;stroke-miterlimit:1.5;"/>
            </g>
            <g transform="matrix(1.57138,-0.0497695,0.0568457,1.7948,25.0296,180.604)">
                <path d="M15.396,52.403C15.396,52.403 15.186,49.449 17.463,49.449C19.74,49.449 19.618,52.378 19.618,52.378" style="fill:none;stroke:rgb(165,243,207);stroke-width:1.19px;stroke-linecap:round;stroke-miterlimit:1.5;"/>
            </g>
            <g transform="matrix(1.18097,-0.0374041,0.0374042,1.18097,18.665,92.0373)">
                <path d="M19.185,159.047C20.444,160.651 23.13,160.5 24.267,159.029" style="fill:none;stroke:rgb(165,243,207);stroke-width:1.69px;stroke-linecap:round;stroke-miterlimit:1.5;"/>
            </g>
        </g>
    </g>
</svg>
