<?xml version="1.0" encoding="UTF-8" standalone="no"?><!DOCTYPE svg PUBLIC "-//W3C//DTD SVG 1.1//EN" "http://www.w3.org/Graphics/SVG/1.1/DTD/svg11.dtd"><svg width="100%" height="100%" viewBox="0 0 593 980" version="1.1" xmlns="http://www.w3.org/2000/svg" xmlns:xlink="http://www.w3.org/1999/xlink" xml:space="preserve" xmlns:serif="http://www.serif.com/" style="fill-rule:evenodd;clip-rule:evenodd;stroke-linejoin:round;stroke-miterlimit:2;"><path d="M560.364,184.653l-264.093,152.474l264.093,152.473l0,-304.947Z" style="fill:#ccd1d0;fill-opacity:0.82;"/><path d="M560.364,489.6l-264.093,-152.473l0,304.947l264.093,-152.474Z" style="fill:#ccd1d0;fill-opacity:0.82;"/><path d="M296.514,642.074l0,-304.947l-264.092,152.474l264.092,152.473Z" style="fill:#ccd1d0;fill-opacity:0.24;"/><path d="M296.271,947.022l0,-304.948l-264.092,152.474l264.092,152.474Z" style="fill:#ccd1d0;fill-opacity:0.43;"/><path d="M32.179,794.548l264.092,-152.474l-264.092,-152.473l-0,304.947Z" style="fill:#ccd1d0;fill-opacity:0.43;"/><path d="M32.179,184.652l264.092,152.474l0,-304.947l-264.092,152.473Z" style="fill:#ccd1d0;fill-opacity:0.11;"/><path d="M296.272,32.179l-0,304.948l264.092,-152.474l-264.092,-152.474Z" style="fill:#ccd1d0;fill-opacity:0.11;"/><path d="M273.703,337.197l-247.197,-142.719c-3.51,-2.027 -5.673,-5.772 -5.673,-9.826c0,-4.053 2.163,-7.798 5.673,-9.825l264.093,-152.474c3.51,-2.026 7.835,-2.026 11.345,0l264.093,152.474c3.51,2.027 5.672,5.772 5.672,9.826l0,304.948c0,4.053 -2.162,7.798 -5.672,9.825l-258.42,149.199l-0,298.397c-0,4.054 -2.163,7.799 -5.673,9.826c-3.51,2.026 -7.835,2.026 -11.345,-0l-264.093,-152.474c-3.51,-2.027 -5.672,-5.772 -5.672,-9.826l-0,-304.948c-0,-4.053 2.162,-7.798 5.672,-9.825c0.485,-0.279 0.984,-0.52 1.495,-0.723l245.702,-141.855Zm11.223,-285.368l-230.057,132.823c-0,0 230.057,132.824 230.057,132.824l0,-265.647Zm22.691,-0l-0,265.647l230.057,-132.824l-230.057,-132.823Zm241.402,152.474l-230.057,132.824l230.057,132.823l-0,-265.647Zm-11.345,285.298l-229.815,-132.684l0,265.367l229.815,-132.683Zm-482.805,304.948l230.057,132.823l0,-265.647l-230.057,132.824Zm-11.345,-19.651l230.057,-132.824l-230.057,-132.823l-0,265.647Zm241.402,-417.981l-229.814,132.684l229.814,132.683l0,-265.367Z" style="fill:none;stroke:#ccd2d0;stroke-width:41.67px;"/><path d="M273.703,337.197l-247.197,-142.719c-3.51,-2.027 -5.673,-5.772 -5.673,-9.826c0,-4.053 2.163,-7.798 5.673,-9.825l264.093,-152.474c3.51,-2.026 7.835,-2.026 11.345,0l264.093,152.474c3.51,2.027 5.672,5.772 5.672,9.826l0,304.948c0,4.053 -2.162,7.798 -5.672,9.825l-258.42,149.199l-0,298.397c-0,4.054 -2.163,7.799 -5.673,9.826c-3.51,2.026 -7.835,2.026 -11.345,-0l-264.093,-152.474c-3.51,-2.027 -5.672,-5.772 -5.672,-9.826l-0,-304.948c-0,-4.053 2.162,-7.798 5.672,-9.825c0.485,-0.279 0.984,-0.52 1.495,-0.723l245.702,-141.855Zm11.223,-285.368l-230.057,132.823c-0,0 230.057,132.824 230.057,132.824l0,-265.647Zm22.691,-0l-0,265.647l230.057,-132.824l-230.057,-132.823Zm241.402,152.474l-230.057,132.824l230.057,132.823l-0,-265.647Zm-11.345,285.298l-229.815,-132.684l0,265.367l229.815,-132.683Zm-482.805,304.948l230.057,132.823l0,-265.647l-230.057,132.824Zm-11.345,-19.651l230.057,-132.824l-230.057,-132.823l-0,265.647Zm241.402,-417.981l-229.814,132.684l229.814,132.683l0,-265.367Z" style="fill:#ccd1d0;"/></svg>