<svg width="100%" height="100%" viewBox="0 0 241 241" version="1.1" xmlns="http://www.w3.org/2000/svg" xmlns:xlink="http://www.w3.org/1999/xlink" xml:space="preserve" style="fill-rule:evenodd;clip-rule:evenodd;stroke-linejoin:round;stroke-miterlimit:2;">
    <path d="M198.656,155.704C219.523,155.704 236.465,172.645 236.465,193.512C236.465,214.379 219.523,231.321 198.656,231.321C177.79,231.321 160.848,214.379 160.848,193.512C160.848,172.645 177.79,155.704 198.656,155.704ZM198.656,179.273C190.798,179.273 184.417,185.653 184.417,193.512C184.417,201.371 190.798,207.751 198.656,207.751C206.515,207.751 212.896,201.371 212.896,193.512C212.896,185.653 206.515,179.273 198.656,179.273Z" style="fill:rgb(43,163,232);"/>
    <path d="M79.957,103.657C115.187,103.657 143.789,132.259 143.789,167.489C143.789,202.718 115.187,231.321 79.957,231.321C44.727,231.321 16.125,202.718 16.125,167.489C16.125,132.259 44.727,103.657 79.957,103.657ZM79.957,127.226C57.735,127.226 39.694,145.267 39.694,167.489C39.694,189.71 57.735,207.751 79.957,207.751C102.178,207.751 120.22,189.71 120.22,167.489C120.22,145.267 102.178,127.226 79.957,127.226Z" style="fill:rgb(43,163,232);"/>
    <path d="M131.707,49.41L108.67,54.388L106.181,42.869L103.897,32.301L42.511,32.301L33.216,75.322C71.126,56.106 118.449,61.763 150.815,92.293L234.798,117.293L234.798,149.79L211.229,149.79L211.229,134.868L138.46,113.206L136.35,111.096C105.226,79.971 54.688,79.971 23.564,111.096L3.712,100.274L23.491,8.732L122.918,8.732L131.707,49.41Z" style="fill:rgb(43,163,232);"/>
    <path d="M194.164,119.61L170.595,119.61L170.595,78.954L193.092,54.86L210.319,70.945L202.276,79.559L194.164,88.247L194.164,119.61Z" fill="currentColor"/>
</svg>
